HIERARCHY
ROOT joint_Root
{
	OFFSET 0.0 0.0 0.0
	CHANNELS 6 Xposition Yposition Zposition Zrotation Xrotation Yrotation 
	JOINT Hips
	{
		OFFSET -0.726466 93.3139 -2.00062
		CHANNELS 6 Xposition Yposition Zposition Zrotation Xrotation Yrotation 
		JOINT Spine
		{
			OFFSET 15.7357 0.0 0.0
			CHANNELS 6 Xposition Yposition Zposition Zrotation Xrotation Yrotation 
			JOINT Chest
			{
				OFFSET 8.98455 -0.406207 0.0
				CHANNELS 6 Xposition Yposition Zposition Zrotation Xrotation Yrotation 
				JOINT Neck
				{
					OFFSET 16.3773 0.0 0.0
					CHANNELS 6 Xposition Yposition Zposition Zrotation Xrotation Yrotation 
					JOINT Head
					{
						OFFSET 6.45672 0.0 0.0
						CHANNELS 6 Xposition Yposition Zposition Zrotation Xrotation Yrotation 
						End Site
						{
							OFFSET 0.0 0.0 0.0
						}
					}
				}
				JOINT Shoulder_L
				{
					OFFSET 12.9942 -0.242716 4.98039
					CHANNELS 6 Xposition Yposition Zposition Zrotation Xrotation Yrotation 
					JOINT UpperArm_L
					{
						OFFSET 5.34809 0.0 0.0
						CHANNELS 6 Xposition Yposition Zposition Zrotation Xrotation Yrotation 
						JOINT LowerArm_L
						{
							OFFSET 24.3286 1.87007e-05 0.0
							CHANNELS 6 Xposition Yposition Zposition Zrotation Xrotation Yrotation 
							JOINT Hand_L
							{
								OFFSET 22.2916 0.0 0.0
								CHANNELS 6 Xposition Yposition Zposition Zrotation Xrotation Yrotation 
								End Site
								{
									OFFSET 0.0 0.0 0.0
								}
							}
						}
					}
				}
				JOINT Shoulder_R
				{
					OFFSET 12.9945 -0.242716 -4.98039
					CHANNELS 6 Xposition Yposition Zposition Zrotation Xrotation Yrotation 
					JOINT UpperArm_R
					{
						OFFSET -5.34813 0.0 0.0
						CHANNELS 6 Xposition Yposition Zposition Zrotation Xrotation Yrotation 
						JOINT LowerArm_R
						{
							OFFSET -24.3289 0.000322201 0.0
							CHANNELS 6 Xposition Yposition Zposition Zrotation Xrotation Yrotation 
							JOINT Hand_R
							{
								OFFSET -22.2915 -0.000108084 0.0
								CHANNELS 6 Xposition Yposition Zposition Zrotation Xrotation Yrotation 
								End Site
								{
									OFFSET 0.0 0.0 0.0
								}
							}
						}
					}
				}
			}
		}
		JOINT UpperLeg_L
		{
			OFFSET -2.19248 -6.46944 0.0
			CHANNELS 6 Xposition Yposition Zposition Zrotation Xrotation Yrotation 
			JOINT LowerLeg_L
			{
				OFFSET 39.0811 0.0 -1.23785e-05
				CHANNELS 6 Xposition Yposition Zposition Zrotation Xrotation Yrotation 
				JOINT Foot_L
				{
					OFFSET 40.9854 0.0 -1.26872e-05
					CHANNELS 6 Xposition Yposition Zposition Zrotation Xrotation Yrotation 
					JOINT Toes_L
					{
						OFFSET 11.7543 0.0 0.0
						CHANNELS 6 Xposition Yposition Zposition Zrotation Xrotation Yrotation 
						End Site
						{
							OFFSET 0.0 0.0 0.0
						}
					}
				}
			}
		}
		JOINT UpperLeg_R
		{
			OFFSET -2.19251 6.46944 0.0
			CHANNELS 6 Xposition Yposition Zposition Zrotation Xrotation Yrotation 
			JOINT LowerLeg_R
			{
				OFFSET -39.0811 -0.00228153 -0.0401928
				CHANNELS 6 Xposition Yposition Zposition Zrotation Xrotation Yrotation 
				JOINT Foot_R
				{
					OFFSET -40.9854 0.0 0.0
					CHANNELS 6 Xposition Yposition Zposition Zrotation Xrotation Yrotation 
					JOINT Toes_R
					{
						OFFSET -11.7543 0.0 0.0
						CHANNELS 6 Xposition Yposition Zposition Zrotation Xrotation Yrotation 
						End Site
						{
							OFFSET 0.0 0.0 0.0
						}
					}
				}
			}
		}
	}
}
MOTION
Frames:	9
Frame Time:	0.0333333
0.000000 0.000000 0.000000 0.000000 0.000000 -0.000000 -0.500980 92.366500 -1.097900 87.818000 -1.400300 3.681920 15.735700 0.000005 -0.000001 88.418600 85.575200 -88.634000 8.984550 -0.406207 -0.000000 1.079890 -0.231552 -0.428373 16.377300 -0.000001 -0.000001 2.378360 -3.219030 2.594710 6.456720 -0.000001 -0.000000 2.511000 -3.275400 -4.656960 12.994200 -0.242716 4.980390 -89.859700 -0.441316 -72.358100 5.348090 -0.000007 -0.000001 -69.116000 37.436500 -12.843300 24.328600 0.000019 0.000005 1.199220 3.292690 -20.024000 22.291600 -0.000001 0.000005 5.053140 5.449290 -4.614230 12.994500 -0.242716 -4.980390 90.494500 -1.374270 -70.206500 -5.348130 -0.000001 -0.000004 -33.795900 -36.778000 -74.196100 -24.328900 0.000322 -0.000009 34.809200 4.284770 -83.866400 -22.291500 -0.000108 -0.000004 53.976100 5.650230 -15.024100 -2.192480 -6.469440 -0.000000 -175.528000 -7.009460 -2.903840 39.081100 -0.000007 -0.000012 -0.098192 0.234729 22.700600 40.985400 -0.000006 -0.000013 -0.244430 2.453680 -66.270100 11.754300 -0.000000 0.000003 -0.000029 -0.000354 -16.591400 -2.192510 6.469440 -0.000001 179.919000 15.459400 -179.612000 -39.081100 -0.002282 -0.040193 0.020635 -0.050985 18.754500 -40.985400 0.000008 0.000006 5.305760 6.858520 -66.135400 -11.754300 -0.000006 -0.000006 -0.005885 -0.069783 -19.413100
0.000000 0.000000 0.000000 0.000000 0.000000 -0.000000 -0.521718 92.367100 -1.125610 87.840300 -1.040010 3.626860 15.735700 0.000005 -0.000001 88.713900 85.583800 -89.015500 8.984550 -0.406207 -0.000000 1.063730 -0.180519 -0.601179 16.377300 -0.000001 -0.000001 2.336680 -3.156110 2.499740 6.456720 -0.000001 -0.000000 2.548990 -3.245210 -4.547660 12.994200 -0.242716 4.980390 -89.867500 -0.415716 -72.324300 5.348090 -0.000007 -0.000001 -68.767600 37.317500 -13.203800 24.328600 0.000019 0.000005 1.200750 3.237580 -20.360800 22.291600 -0.000001 0.000005 5.045510 5.454270 -4.793030 12.994500 -0.242716 -4.980390 90.500400 -1.392930 -70.236000 -5.348130 -0.000001 -0.000004 -40.970300 -37.044600 -76.918900 -24.328900 0.000322 -0.000009 30.473600 5.319030 -81.046800 -22.291500 -0.000108 -0.000004 51.531200 5.610300 -11.957000 -2.192480 -6.469440 -0.000000 -175.560000 -6.795390 -3.050510 39.081100 -0.000007 -0.000012 -0.097714 0.233325 22.723400 40.985400 -0.000006 -0.000013 -0.228613 2.565660 -66.225800 11.754300 -0.000000 0.000003 -0.000024 -0.000299 -16.589200 -2.192510 6.469440 -0.000001 179.914000 15.694500 -179.662000 -39.081100 -0.002282 -0.040193 0.019222 -0.046837 18.749000 -40.985400 0.000008 0.000006 5.239360 6.755220 -66.125900 -11.754300 -0.000006 -0.000006 -0.005811 -0.069113 -19.385800
0.000000 0.000000 0.000000 0.000000 0.000000 -0.000000 -0.551764 92.373100 -1.142620 87.839500 -0.619678 3.605670 15.735700 0.000005 -0.000001 89.026100 85.591300 -89.416800 8.984550 -0.406207 -0.000000 1.049830 -0.126912 -0.779714 16.377300 -0.000001 -0.000001 2.383170 -3.056720 2.358230 6.456720 -0.000001 -0.000000 2.564740 -3.192890 -4.557680 12.994200 -0.242716 4.980390 -89.892400 -0.336023 -72.241600 5.348090 -0.000007 -0.000001 -68.236000 37.423100 -13.637100 24.328600 0.000019 0.000005 1.053550 2.766320 -20.858200 22.291600 -0.000001 0.000005 5.059920 5.457640 -4.914860 12.994500 -0.242716 -4.980390 90.540800 -1.503160 -70.209300 -5.348130 -0.000001 -0.000004 -50.593600 -37.028100 -80.894600 -24.328900 0.000322 -0.000009 26.649800 6.421720 -77.435900 -22.291500 -0.000108 -0.000004 49.145700 5.544480 -8.431430 -2.192480 -6.469440 -0.000000 -175.549000 -6.502420 -3.149670 39.081100 -0.000007 -0.000012 -0.099118 0.236759 22.716400 40.985400 -0.000006 -0.000013 -0.228867 2.700370 -66.168200 11.754300 -0.000000 0.000003 -0.000027 -0.000326 -16.590300 -2.192510 6.469440 -0.000001 179.952000 15.963900 -179.645000 -39.081100 -0.002282 -0.040193 0.022484 -0.056609 18.699200 -40.985400 0.000008 0.000006 5.389820 6.561680 -66.136700 -11.754300 -0.000006 -0.000006 -0.005778 -0.068804 -19.373200
0.000000 0.000000 0.000000 0.000000 0.000000 -0.000000 -0.569657 92.375700 -1.147490 87.874100 -0.170150 3.623080 15.735700 0.000005 -0.000001 89.190900 85.593400 -89.685600 8.984550 -0.406207 -0.000000 1.046060 -0.095402 -0.987702 16.377300 -0.000001 -0.000001 2.463140 -2.907220 2.186740 6.456720 -0.000001 -0.000000 2.584360 -3.111700 -4.605020 12.994200 -0.242716 4.980390 -89.927100 -0.226470 -72.150200 5.348090 -0.000007 -0.000001 -67.755100 37.392100 -13.978900 24.328600 0.000019 0.000005 1.003810 2.560290 -21.416300 22.291600 -0.000001 0.000005 5.135670 5.459240 -4.973150 12.994500 -0.242716 -4.980390 90.590600 -1.643680 -70.231700 -5.348130 -0.000001 -0.000004 -60.598700 -36.688600 -85.209100 -24.328900 0.000322 -0.000009 22.217300 7.073360 -73.221500 -22.291500 -0.000108 -0.000004 48.335000 5.450020 -4.646320 -2.192480 -6.469440 -0.000000 -175.587000 -6.207210 -3.195590 39.081100 -0.000007 -0.000012 -0.097476 0.233026 22.700000 40.985400 -0.000006 -0.000013 -0.206414 2.853520 -66.119600 11.754300 -0.000000 0.000003 -0.000025 -0.000312 -16.589800 -2.192510 6.469440 -0.000001 179.910000 16.304400 -179.579000 -39.081100 -0.002282 -0.040193 0.023060 -0.058414 18.668500 -40.985400 0.000008 0.000006 5.402270 6.461020 -66.154400 -11.754300 -0.000006 -0.000006 -0.005826 -0.069250 -19.391300
0.000000 0.000000 0.000000 0.000000 0.000000 -0.000000 -0.569817 92.375000 -1.129470 87.913900 0.200759 3.623820 15.735700 0.000005 -0.000001 89.660500 85.599800 -90.255900 8.984550 -0.406207 -0.000000 1.034350 -0.017149 -1.189660 16.377300 -0.000001 -0.000001 2.554660 -2.813400 2.004630 6.456720 -0.000001 -0.000000 2.602270 -3.078780 -4.585400 12.994200 -0.242716 4.980390 -89.936900 -0.195144 -72.071600 5.348090 -0.000007 -0.000001 -67.462200 37.278800 -14.259700 24.328600 0.000019 0.000005 0.977649 2.439630 -21.844700 22.291600 -0.000001 0.000005 5.118540 5.462270 -5.083990 12.994500 -0.242716 -4.980390 90.641100 -1.785380 -70.243500 -5.348130 -0.000001 -0.000004 -69.585400 -36.160500 -89.193900 -24.328900 0.000322 -0.000009 16.646300 6.735910 -68.578600 -22.291500 -0.000108 -0.000004 48.753900 5.363290 -1.783990 -2.192480 -6.469440 -0.000000 -175.628000 -6.056880 -3.236430 39.081100 -0.000007 -0.000012 -0.098410 0.235360 22.691200 40.985400 -0.000006 -0.000013 -0.164081 3.045160 -66.093400 11.754300 -0.000000 0.000003 -0.000022 -0.000272 -16.588200 -2.192510 6.469440 -0.000001 179.868000 16.491500 -179.543000 -39.081100 -0.002282 -0.040193 0.024559 -0.062850 18.668400 -40.985400 0.000008 0.000006 5.399790 6.277970 -66.183600 -11.754300 -0.000006 -0.000006 -0.005720 -0.068269 -19.351300
0.000000 0.000000 0.000000 0.000000 0.000000 -0.000000 -0.568236 92.362300 -1.120570 87.889500 0.533800 3.633290 15.735700 0.000005 -0.000001 89.689700 85.607100 -90.341600 8.984550 -0.406207 -0.000000 1.019880 -0.009194 -1.302820 16.377300 -0.000001 -0.000001 2.571080 -2.762540 1.905790 6.456720 -0.000001 -0.000000 2.613090 -3.149170 -4.512700 12.994200 -0.242716 4.980390 -89.962900 -0.113939 -71.979300 5.348090 -0.000007 -0.000001 -67.286600 37.153200 -14.325900 24.328600 0.000019 0.000005 0.979815 2.397330 -22.237100 22.291600 -0.000001 0.000005 5.113280 5.461770 -5.065680 12.994500 -0.242716 -4.980390 90.672600 -1.872240 -70.233600 -5.348130 -0.000001 -0.000004 -76.655800 -35.535300 -92.409700 -24.328900 0.000322 -0.000009 12.417000 6.007610 -64.576600 -22.291500 -0.000108 -0.000004 49.472400 5.285320 0.476025 -2.192480 -6.469440 -0.000000 -175.609000 -5.886800 -3.334800 39.081100 -0.000007 -0.000012 -0.096753 0.229943 22.820000 40.985400 -0.000006 -0.000013 -0.122268 3.212950 -66.137900 11.754300 -0.000000 0.000003 -0.000023 -0.000290 -16.588900 -2.192510 6.469440 -0.000001 179.881000 16.723200 -179.526000 -39.081100 -0.002282 -0.040193 0.024692 -0.063069 18.716200 -40.985400 0.000008 0.000006 5.399290 6.160610 -66.233100 -11.754300 -0.000006 -0.000006 -0.005837 -0.069345 -19.395200
0.000000 0.000000 0.000000 0.000000 0.000000 -0.000000 -0.534594 92.365200 -1.080050 87.937200 0.680317 3.651400 15.735700 0.000005 -0.000001 89.996300 85.609900 -90.700700 8.984550 -0.406207 -0.000000 1.014860 0.040918 -1.408030 16.377300 -0.000001 -0.000001 2.446420 -2.821310 1.836720 6.456720 -0.000001 -0.000000 2.611470 -3.310560 -4.384640 12.994200 -0.242716 4.980390 -89.990500 -0.029011 -71.924300 5.348090 -0.000007 -0.000001 -67.185700 37.189700 -14.278300 24.328600 0.000019 0.000005 0.948482 2.303690 -22.384400 22.291600 -0.000001 0.000005 5.174430 5.463200 -5.118300 12.994500 -0.242716 -4.980390 90.697600 -1.949230 -70.302600 -5.348130 -0.000001 -0.000004 -80.075200 -35.526800 -93.509000 -24.328900 0.000322 -0.000009 11.322200 5.861130 -62.980400 -22.291500 -0.000108 -0.000004 50.864400 5.178620 3.244920 -2.192480 -6.469440 -0.000000 -175.679000 -5.783020 -3.267010 39.081100 -0.000007 -0.000012 -0.097537 0.232631 22.747300 40.985400 -0.000006 -0.000013 -0.093808 3.255400 -66.126800 11.754300 -0.000000 0.000003 -0.000023 -0.000281 -16.588500 -2.192510 6.469440 -0.000001 179.806000 16.791300 -179.467000 -39.081100 -0.002282 -0.040193 0.027048 -0.070070 18.704800 -40.985400 0.000008 0.000006 5.411360 6.063700 -66.256900 -11.754300 -0.000006 -0.000006 -0.005713 -0.068206 -19.348800
0.000000 0.000000 0.000000 0.000000 0.000000 -0.000000 -0.492285 92.362800 -1.050740 87.935800 0.690799 3.651830 15.735700 0.000005 -0.000001 89.911500 85.617500 -90.605800 8.984550 -0.406207 -0.000000 0.999543 0.027449 -1.387740 16.377300 -0.000001 -0.000001 2.319240 -2.874210 1.781790 6.456720 -0.000001 -0.000000 2.418670 -3.380290 -4.349560 12.994200 -0.242716 4.980390 -90.010400 0.031759 -71.919300 5.348090 -0.000007 -0.000001 -67.374900 37.089500 -13.891300 24.328600 0.000019 0.000005 0.972392 2.358100 -22.416100 22.291600 -0.000001 0.000005 5.061990 5.462390 -5.088370 12.994500 -0.242716 -4.980390 90.661900 -1.847490 -70.285100 -5.348130 -0.000001 -0.000004 -79.151300 -35.913600 -92.394800 -24.328900 0.000322 -0.000009 11.587400 5.863700 -63.517700 -22.291500 -0.000108 -0.000004 52.681800 5.161760 3.662050 -2.192480 -6.469440 -0.000000 -175.709000 -5.794550 -3.247470 39.081100 -0.000007 -0.000012 -0.095535 0.227765 22.755400 40.985400 -0.000006 -0.000013 -0.060021 3.255040 -66.157300 11.754300 -0.000000 0.000003 -0.000025 -0.000313 -16.589800 -2.192510 6.469440 -0.000001 179.782000 16.777000 -179.441000 -39.081100 -0.002282 -0.040193 0.028466 -0.074266 18.702900 -40.985400 0.000008 0.000006 5.419740 6.059640 -66.278500 -11.754300 -0.000006 -0.000006 -0.005783 -0.068851 -19.375100
0.000000 0.000000 0.000000 0.000000 0.000000 -0.000000 -0.433019 92.354600 -1.011850 87.957000 0.514503 3.616120 15.735700 0.000005 -0.000001 89.430300 85.624200 -90.067900 8.984550 -0.406207 -0.000000 0.985273 -0.049261 -1.273750 16.377300 -0.000001 -0.000001 2.067930 -2.902620 1.729730 6.456720 -0.000001 -0.000000 2.259350 -3.318010 -4.429810 12.994200 -0.242716 4.980390 -90.011600 0.035630 -71.968900 5.348090 -0.000007 -0.000001 -67.781000 37.025800 -13.298100 24.328600 0.000019 0.000005 0.953128 2.336970 -22.194500 22.291600 -0.000001 0.000005 4.981040 5.461960 -5.072590 12.994500 -0.242716 -4.980390 90.563200 -1.571720 -70.281700 -5.348130 -0.000001 -0.000004 -74.432900 -36.486600 -89.660800 -24.328900 0.000322 -0.000009 13.103100 6.018580 -65.751800 -22.291500 -0.000108 -0.000004 53.413600 5.213710 2.373420 -2.192480 -6.469440 -0.000000 -175.766000 -5.885870 -3.243020 39.081100 -0.000007 -0.000012 -0.096495 0.229830 22.775300 40.985400 -0.000006 -0.000013 -0.034318 3.189270 -66.209800 11.754300 -0.000000 0.000003 -0.000026 -0.000314 -16.589800 -2.192510 6.469440 -0.000001 179.714000 16.625400 -179.488000 -39.081100 -0.002282 -0.040193 0.025159 -0.064276 18.763000 -40.985400 0.000008 0.000006 5.284980 6.106840 -66.301200 -11.754300 -0.000006 -0.000006 -0.005766 -0.068694 -19.368700
